<svg width="24" height="24" viewBox="0 0 24 24" fill="none" xmlns="http://www.w3.org/2000/svg">
<g id="olive-branches-award-symbol-svgrepo-com 1">
<g id="Group">
<g id="Group_2">
<g id="Group_3">
<path id="Vector" d="M2.62414 9.32024C2.62414 9.32024 3.3654 8.36479 2.88601 7.03787C2.40494 5.71179 1.28467 5.20813 1.28467 5.20813C1.28467 5.20813 0.44635 6.3468 0.914871 7.63942C1.38256 8.93287 2.62414 9.32024 2.62414 9.32024Z" fill="#E6BB45"/>
<path id="Vector_2" d="M4.68146 9.99877C4.68146 9.99877 5.97743 9.89503 6.71953 8.73628C7.46163 7.57836 6.89439 6.28323 6.89439 6.28323C6.89439 6.28323 5.69129 6.52753 4.92911 7.71641C4.16776 8.90444 4.68146 9.99877 4.68146 9.99877Z" fill="#E6BB45"/>
<path id="Vector_3" d="M4.81282 11.5298C4.21294 12.8074 4.86469 13.8264 4.86469 13.8264C4.86469 13.8264 6.13723 13.5537 6.72121 12.3096C7.30435 11.0638 6.57312 9.85403 6.57312 9.85403C6.57312 9.85403 5.41269 10.2523 4.81282 11.5298Z" fill="#E6BB45"/>
<path id="Vector_4" d="M7.7419 12.5589C7.7419 12.5589 6.62331 13.0659 6.14642 14.3928C5.66953 15.7223 6.41331 16.6744 6.41331 16.6744C6.41331 16.6744 7.65322 16.2836 8.11839 14.9894C8.58273 13.6951 7.7419 12.5589 7.7419 12.5589Z" fill="#E6BB45"/>
<path id="Vector_5" d="M8.67394 19.5466C8.67394 19.5466 9.74986 18.8145 9.82265 17.4416C9.8946 16.0678 8.76095 15.2228 8.76095 15.2228C8.76095 15.2228 7.83562 16.0301 7.76116 17.4391C7.68753 18.8471 8.67394 19.5466 8.67394 19.5466Z" fill="#E6BB45"/>
<path id="Vector_6" d="M4.27652 6.76346C4.27652 6.76346 5.42356 6.38027 5.75989 5.01069C6.09706 3.6411 5.44531 2.60031 5.44531 2.60031C5.44531 2.60031 4.11672 3.08222 3.78792 4.41834C3.45996 5.75363 4.27652 6.76346 4.27652 6.76346Z" fill="#E6BB45"/>
<path id="Vector_7" d="M2.62331 12.2326C2.62331 12.2326 3.04917 11.1006 2.19997 9.97534C1.3491 8.84922 0.130948 8.69778 0.130948 8.69778C0.130948 8.69778 -0.334227 10.0331 0.494052 11.1307C1.32233 12.2293 2.62331 12.2326 2.62331 12.2326Z" fill="#E6BB45"/>
<path id="Vector_8" d="M3.57373 15.2194C3.57373 15.2194 3.73688 14.0214 2.65928 13.1128C1.58001 12.2033 0.358508 12.3271 0.358508 12.3271C0.358508 12.3271 0.201218 13.7327 1.25204 14.6187C2.30454 15.5039 3.57373 15.2194 3.57373 15.2194Z" fill="#E6BB45"/>
<path id="Vector_9" d="M5.02114 17.6892C5.02114 17.6892 4.81616 16.4978 3.51267 15.959C2.20834 15.4186 1.08221 15.9063 1.08221 15.9063C1.08221 15.9063 1.35831 17.2935 2.62833 17.8206C3.89836 18.3451 5.02114 17.6892 5.02114 17.6892Z" fill="#E6BB45"/>
<path id="Vector_10" d="M5.65365 18.7149C4.29494 18.3351 3.23407 18.9534 3.23407 18.9534C3.23407 18.9534 3.67331 20.297 4.99688 20.6677C6.32213 21.0383 7.35789 20.2527 7.35789 20.2527C7.35789 20.2527 7.01236 19.0939 5.65365 18.7149Z" fill="#E6BB45"/>
<path id="Vector_11" d="M4.41791 7.58003L3.81385 7.28302C3.78206 7.34911 0.674761 13.9494 9.40599 21.4131L9.84272 20.9019C1.52981 13.7946 4.29576 7.83019 4.41791 7.58003Z" fill="#E6BB45"/>
</g>
<g id="Group_4">
<path id="Vector_12" d="M21.3759 9.3077C21.3759 9.3077 20.6338 8.35225 21.114 7.02617C21.5934 5.69925 22.7145 5.19559 22.7145 5.19559C22.7145 5.19559 23.552 6.33342 23.0835 7.62688C22.6175 8.92033 21.3759 9.3077 21.3759 9.3077Z" fill="#E6BB45"/>
<path id="Vector_13" d="M19.3186 9.9862C19.3186 9.9862 18.0226 9.88162 17.2797 8.7237C16.5376 7.56579 17.1048 6.27066 17.1048 6.27066C17.1048 6.27066 18.3079 6.51496 19.0709 7.703C19.8323 8.89187 19.3186 9.9862 19.3186 9.9862Z" fill="#E6BB45"/>
<path id="Vector_14" d="M19.1872 11.5164C19.7871 12.794 19.1354 13.813 19.1354 13.813C19.1354 13.813 17.8628 13.5403 17.278 12.2962C16.6957 11.0504 17.4261 9.84064 17.4261 9.84064C17.4261 9.84064 18.5873 10.2397 19.1872 11.5164Z" fill="#E6BB45"/>
<path id="Vector_15" d="M16.2581 12.5463C16.2581 12.5463 17.3759 13.0525 17.8536 14.3819C18.3305 15.7105 17.5859 16.6626 17.5859 16.6626C17.5859 16.6626 16.3468 16.2711 15.8816 14.9768C15.4165 13.6825 16.2581 12.5463 16.2581 12.5463Z" fill="#E6BB45"/>
<path id="Vector_16" d="M15.3244 19.5331C15.3244 19.5331 14.2494 18.8019 14.1766 17.4281C14.1046 16.0544 15.2391 15.2085 15.2391 15.2085C15.2391 15.2085 16.1628 16.0159 16.2381 17.4256C16.3125 18.8354 15.3244 19.5331 15.3244 19.5331Z" fill="#E6BB45"/>
<path id="Vector_17" d="M19.7218 6.7509C19.7218 6.7509 18.5765 6.36771 18.2401 4.99813C17.903 3.62854 18.5555 2.58691 18.5555 2.58691C18.5555 2.58691 19.8841 3.06882 20.2121 4.40578C20.5401 5.74023 19.7218 6.7509 19.7218 6.7509Z" fill="#E6BB45"/>
<path id="Vector_18" d="M21.3767 12.22C21.3767 12.22 20.9509 11.0881 21.7992 9.96277C22.6501 8.83664 23.8691 8.68521 23.8691 8.68521C23.8691 8.68521 24.3351 10.0205 23.506 11.1182C22.6769 12.2167 21.3767 12.22 21.3767 12.22Z" fill="#E6BB45"/>
<path id="Vector_19" d="M20.4263 15.2069C20.4263 15.2069 20.2623 14.0088 21.3407 13.0985C22.42 12.1899 23.6415 12.3138 23.6415 12.3138C23.6415 12.3138 23.7988 13.7202 22.7471 14.6053C21.6955 15.4905 20.4263 15.2069 20.4263 15.2069Z" fill="#E6BB45"/>
<path id="Vector_20" d="M18.9781 17.6766C18.9781 17.6766 19.1839 16.4844 20.4874 15.9448C21.7925 15.4043 22.9178 15.8921 22.9178 15.8921C22.9178 15.8921 22.6417 17.2792 21.3717 17.8055C20.1008 18.3326 18.9781 17.6766 18.9781 17.6766Z" fill="#E6BB45"/>
<path id="Vector_21" d="M18.3455 18.7024C19.7043 18.3234 20.766 18.9408 20.766 18.9408C20.766 18.9408 20.3276 20.2836 19.0031 20.6568C17.6787 21.0257 16.643 20.2401 16.643 20.2401C16.643 20.2401 16.9877 19.0822 18.3455 18.7024Z" fill="#E6BB45"/>
<path id="Vector_22" d="M19.5813 7.56746L20.187 7.27045C20.2188 7.33654 23.3261 13.9368 14.594 21.3997L14.1581 20.8885C22.4694 13.7829 19.7034 7.81678 19.5813 7.56746Z" fill="#E6BB45"/>
</g>
</g>
</g>
</g>
</svg>
