<svg width="18" height="18" viewBox="0 0 18 18" fill="none" xmlns="http://www.w3.org/2000/svg">
<path d="M6.91666 7.74998H9C9.22101 7.74998 9.43297 7.66218 9.58925 7.5059C9.74553 7.34962 9.83333 7.13766 9.83333 6.91664C9.83333 6.69563 9.74553 6.48367 9.58925 6.32739C9.43297 6.17111 9.22101 6.08331 9 6.08331H8.16666V5.66664C8.16666 5.44563 8.07887 5.23367 7.92259 5.07739C7.7663 4.92111 7.55434 4.83331 7.33333 4.83331C7.11232 4.83331 6.90035 4.92111 6.74407 5.07739C6.58779 5.23367 6.5 5.44563 6.5 5.66664V6.12498C5.99368 6.22779 5.54363 6.51506 5.23721 6.93103C4.93079 7.347 4.78986 7.86198 4.84178 8.37602C4.89371 8.89005 5.13477 9.36645 5.51819 9.71274C5.90161 10.059 6.40002 10.2505 6.91666 10.25H7.75C7.8605 10.25 7.96648 10.2939 8.04462 10.372C8.12277 10.4502 8.16666 10.5561 8.16666 10.6666C8.16666 10.7771 8.12277 10.8831 8.04462 10.9613C7.96648 11.0394 7.8605 11.0833 7.75 11.0833H5.66666C5.44565 11.0833 5.23369 11.1711 5.07741 11.3274C4.92113 11.4837 4.83333 11.6956 4.83333 11.9166C4.83333 12.1377 4.92113 12.3496 5.07741 12.5059C5.23369 12.6622 5.44565 12.75 5.66666 12.75H6.5V13.1666C6.5 13.3877 6.58779 13.5996 6.74407 13.7559C6.90035 13.9122 7.11232 14 7.33333 14C7.55434 14 7.7663 13.9122 7.92259 13.7559C8.07887 13.5996 8.16666 13.3877 8.16666 13.1666V12.7083C8.67298 12.6055 9.12303 12.3182 9.42945 11.9023C9.73587 11.4863 9.8768 10.9713 9.82488 10.4573C9.77295 9.94324 9.53189 9.46684 9.14847 9.12055C8.76505 8.77426 8.26664 8.58279 7.75 8.58331H6.91666C6.80616 8.58331 6.70018 8.53941 6.62204 8.46127C6.5439 8.38313 6.5 8.27715 6.5 8.16664C6.5 8.05614 6.5439 7.95015 6.62204 7.87201C6.70018 7.79387 6.80616 7.74998 6.91666 7.74998ZM16.5 8.99998H14V1.49998C14.0006 1.35313 13.9624 1.20875 13.8892 1.08143C13.816 0.954116 13.7105 0.848396 13.5833 0.774976C13.4566 0.701835 13.3129 0.66333 13.1667 0.66333C13.0204 0.66333 12.8767 0.701835 12.75 0.774976L10.25 2.20831L7.75 0.774976C7.62331 0.701835 7.47961 0.66333 7.33333 0.66333C7.18705 0.66333 7.04335 0.701835 6.91666 0.774976L4.41666 2.20831L1.91666 0.774976C1.78998 0.701835 1.64628 0.66333 1.5 0.66333C1.35372 0.66333 1.21001 0.701835 1.08333 0.774976C0.956159 0.848396 0.850648 0.954116 0.777478 1.08143C0.704309 1.20875 0.66608 1.35313 0.666663 1.49998V14.8333C0.666663 15.4964 0.930055 16.1322 1.3989 16.6011C1.86774 17.0699 2.50362 17.3333 3.16666 17.3333H14.8333C15.4964 17.3333 16.1323 17.0699 16.6011 16.6011C17.0699 16.1322 17.3333 15.4964 17.3333 14.8333V9.83331C17.3333 9.6123 17.2455 9.40033 17.0893 9.24405C16.933 9.08777 16.721 8.99998 16.5 8.99998ZM3.16666 15.6666C2.94565 15.6666 2.73369 15.5788 2.57741 15.4226C2.42113 15.2663 2.33333 15.0543 2.33333 14.8333V2.94164L4 3.89164C4.12861 3.95882 4.27156 3.9939 4.41666 3.9939C4.56176 3.9939 4.70472 3.95882 4.83333 3.89164L7.33333 2.45831L9.83333 3.89164C9.96194 3.95882 10.1049 3.9939 10.25 3.9939C10.3951 3.9939 10.538 3.95882 10.6667 3.89164L12.3333 2.94164V14.8333C12.3356 15.1176 12.3863 15.3994 12.4833 15.6666H3.16666ZM15.6667 14.8333C15.6667 15.0543 15.5789 15.2663 15.4226 15.4226C15.2663 15.5788 15.0543 15.6666 14.8333 15.6666C14.6123 15.6666 14.4004 15.5788 14.2441 15.4226C14.0878 15.2663 14 15.0543 14 14.8333V10.6666H15.6667V14.8333Z" fill="#808080"/>
</svg>
