<svg width="21" height="20" viewBox="0 0 21 20" fill="none" xmlns="http://www.w3.org/2000/svg">
<g id="vuesax/linear/magicpen">
<g id="magicpen">
<path id="Vector" d="M3.41667 17.0833C4.10834 17.775 5.225 17.775 5.91667 17.0833L16.75 6.24995C17.4417 5.55828 17.4417 4.44162 16.75 3.74995C16.0583 3.05828 14.9417 3.05828 14.25 3.74995L3.41667 14.5833C2.725 15.275 2.725 16.3916 3.41667 17.0833Z" stroke="#E6BB45" stroke-width="1.5" stroke-linecap="round" stroke-linejoin="round"/>
<path id="Vector_2" d="M15.5083 7.4917L13.0083 4.9917" stroke="#E6BB45" stroke-width="1.5" stroke-linecap="round" stroke-linejoin="round"/>
<path id="Vector_3" d="M7.58333 2.03329L8.83333 1.66663L8.46666 2.91663L8.83333 4.16663L7.58333 3.79996L6.33333 4.16663L6.69999 2.91663L6.33333 1.66663L7.58333 2.03329Z" stroke="#E6BB45" stroke-linecap="round" stroke-linejoin="round"/>
<path id="Vector_4" d="M4.25 7.03329L5.5 6.66663L5.13333 7.91663L5.5 9.16663L4.25 8.79996L3 9.16663L3.36667 7.91663L3 6.66663L4.25 7.03329Z" stroke="#E6BB45" stroke-linecap="round" stroke-linejoin="round"/>
<path id="Vector_5" d="M16.75 11.2L18 10.8334L17.6333 12.0834L18 13.3334L16.75 12.9667L15.5 13.3334L15.8667 12.0834L15.5 10.8334L16.75 11.2Z" stroke="#E6BB45" stroke-linecap="round" stroke-linejoin="round"/>
</g>
</g>
</svg>
