<svg width="24" height="24" viewBox="0 0 24 24" fill="none" xmlns="http://www.w3.org/2000/svg">
<g id="navigation / 24 / Outline">
<path id="Vector" d="M21.68 17.6499L14.68 3.64986C14.4302 3.15327 14.0473 2.73584 13.5741 2.44417C13.1009 2.1525 12.5559 1.99805 12 1.99805C11.4441 1.99805 10.8991 2.1525 10.4259 2.44417C9.95269 2.73584 9.56981 3.15327 9.32 3.64986L2.32 17.6499C2.04501 18.2024 1.94711 18.8262 2.03965 19.4364C2.13219 20.0466 2.41067 20.6134 2.83711 21.0595C3.26356 21.5057 3.81722 21.8094 4.42261 21.9294C5.028 22.0493 5.65565 21.9797 6.22 21.7299L11.59 19.3299C11.7198 19.2754 11.8592 19.2474 12 19.2474C12.1408 19.2474 12.2802 19.2754 12.41 19.3299L17.78 21.7299C18.3443 21.9797 18.972 22.0493 19.5774 21.9294C20.1828 21.8094 20.7364 21.5057 21.1629 21.0595C21.5893 20.6134 21.8678 20.0466 21.9603 19.4364C22.0529 18.8262 21.955 18.2024 21.68 17.6499ZM19.68 19.6499C19.5373 19.7985 19.3521 19.8994 19.1498 19.9388C18.9476 19.9782 18.7381 19.9541 18.55 19.8699L13.18 17.4799C12.796 17.3089 12.3803 17.2206 11.96 17.2206C11.5397 17.2206 11.124 17.3089 10.74 17.4799L5.41 19.8999C5.22296 19.9811 5.01555 20.0033 4.81557 19.9633C4.61559 19.9234 4.4326 19.8232 4.29115 19.6763C4.14969 19.5295 4.05653 19.3428 4.02415 19.1415C3.99177 18.9401 4.02173 18.7337 4.11 18.5499L11.11 4.54986C11.1939 4.38606 11.3214 4.2486 11.4784 4.15261C11.6355 4.05662 11.816 4.00582 12 4.00582C12.184 4.00582 12.3645 4.05662 12.5216 4.15261C12.6786 4.2486 12.8061 4.38606 12.89 4.54986L19.89 18.5499C19.9805 18.733 20.0127 18.9395 19.9823 19.1415C19.9519 19.3436 19.8604 19.5314 19.72 19.6799L19.68 19.6499Z" fill="#E6BB45"/>
</g>
</svg>
