<svg width="199" height="158" viewBox="0 0 199 158" fill="none" xmlns="http://www.w3.org/2000/svg">
<path id="Star 1" d="M102.196 3.7082C103.393 0.0229616 108.607 0.0229597 109.804 3.7082L132.044 72.154C132.579 73.8021 134.115 74.918 135.848 74.918H207.816C211.691 74.918 213.302 79.8764 210.167 82.154L151.944 124.456C150.542 125.474 149.955 127.28 150.491 128.928L172.73 197.374C173.927 201.059 169.71 204.124 166.575 201.846L108.351 159.544C106.949 158.526 105.051 158.526 103.649 159.544L45.4254 201.846C42.2905 204.124 38.0726 201.059 39.27 197.374L61.5094 128.928C62.0449 127.28 61.4583 125.474 60.0563 124.456L1.83282 82.154C-1.30204 79.8764 0.309056 74.918 4.18395 74.918H76.1521C77.885 74.918 79.4209 73.8021 79.9564 72.154L102.196 3.7082Z" fill="#092544"/>
</svg>
