<svg width="65" height="65" viewBox="0 0 65 65" fill="none" xmlns="http://www.w3.org/2000/svg">
<circle cx="32.1667" cy="32.5" r="31" fill="#1D331D" stroke="#169916" stroke-width="2"/>
<path d="M18.2302 27.3H15.1902V25.54H20.1102V40H18.2302V27.3ZM22.7554 32.78C22.7554 28.3 25.0754 25.26 28.7154 25.26C32.3354 25.26 34.6554 28.3 34.6554 32.78C34.6554 37.28 32.4354 40.26 28.7154 40.26C24.9754 40.26 22.7554 37.28 22.7554 32.78ZM24.6954 32.78C24.6954 36.34 26.1754 38.5 28.7154 38.5C31.2554 38.5 32.7154 36.34 32.7154 32.78C32.7154 29.18 31.2554 27.02 28.7154 27.02C26.1754 27.02 24.6954 29.18 24.6954 32.78ZM36.6226 32.78C36.6226 28.3 38.9426 25.26 42.5826 25.26C46.2026 25.26 48.5226 28.3 48.5226 32.78C48.5226 37.28 46.3026 40.26 42.5826 40.26C38.8426 40.26 36.6226 37.28 36.6226 32.78ZM38.5626 32.78C38.5626 36.34 40.0426 38.5 42.5826 38.5C45.1226 38.5 46.5826 36.34 46.5826 32.78C46.5826 29.18 45.1226 27.02 42.5826 27.02C40.0426 27.02 38.5626 29.18 38.5626 32.78Z" fill="#169916"/>
</svg>
